<svg xmlns="http://www.w3.org/2000/svg" xmlns:xlink="http://www.w3.org/1999/xlink" width="1080" zoomAndPan="magnify" viewBox="0 0 810 809.999993" height="1080" preserveAspectRatio="xMidYMid meet" version="1.0"><defs><filter x="0%" y="0%" width="100%" height="100%" id="3482e6528c"><feColorMatrix values="0 0 0 0 1 0 0 0 0 1 0 0 0 0 1 0 0 0 1 0" color-interpolation-filters="sRGB"/></filter><g/><mask id="0ffce478f5"><g filter="url(#3482e6528c)"><rect x="-81" width="972" fill="#000000" y="-80.999999" height="971.999992" fill-opacity="0.03"/></g></mask><clipPath id="4f58703cb3"><path d="M 32 0 L 35 0 L 35 810 L 32 810 Z M 32 0 " clip-rule="nonzero"/></clipPath><clipPath id="91cdc057b9"><path d="M 82 0 L 84 0 L 84 810 L 82 810 Z M 82 0 " clip-rule="nonzero"/></clipPath><clipPath id="9a2ef26c08"><path d="M 131 0 L 134 0 L 134 810 L 131 810 Z M 131 0 " clip-rule="nonzero"/></clipPath><clipPath id="2f07ce375c"><path d="M 181 0 L 183 0 L 183 810 L 181 810 Z M 181 0 " clip-rule="nonzero"/></clipPath><clipPath id="125f521f6f"><path d="M 230 0 L 233 0 L 233 810 L 230 810 Z M 230 0 " clip-rule="nonzero"/></clipPath><clipPath id="cd853e0297"><path d="M 280 0 L 282 0 L 282 810 L 280 810 Z M 280 0 " clip-rule="nonzero"/></clipPath><clipPath id="60e75eb7d7"><path d="M 330 0 L 332 0 L 332 810 L 330 810 Z M 330 0 " clip-rule="nonzero"/></clipPath><clipPath id="1c52180528"><path d="M 379 0 L 381 0 L 381 810 L 379 810 Z M 379 0 " clip-rule="nonzero"/></clipPath><clipPath id="27123f837b"><path d="M 429 0 L 431 0 L 431 810 L 429 810 Z M 429 0 " clip-rule="nonzero"/></clipPath><clipPath id="eb612bc655"><path d="M 478 0 L 480 0 L 480 810 L 478 810 Z M 478 0 " clip-rule="nonzero"/></clipPath><clipPath id="c423aca06a"><path d="M 528 0 L 530 0 L 530 810 L 528 810 Z M 528 0 " clip-rule="nonzero"/></clipPath><clipPath id="c763a25ae6"><path d="M 577 0 L 580 0 L 580 810 L 577 810 Z M 577 0 " clip-rule="nonzero"/></clipPath><clipPath id="6f645be931"><path d="M 627 0 L 629 0 L 629 810 L 627 810 Z M 627 0 " clip-rule="nonzero"/></clipPath><clipPath id="49cabd4eed"><path d="M 676 0 L 679 0 L 679 810 L 676 810 Z M 676 0 " clip-rule="nonzero"/></clipPath><clipPath id="a0d4f80bac"><path d="M 726 0 L 728 0 L 728 810 L 726 810 Z M 726 0 " clip-rule="nonzero"/></clipPath><clipPath id="a97f95882b"><path d="M 775 0 L 778 0 L 778 810 L 775 810 Z M 775 0 " clip-rule="nonzero"/></clipPath><clipPath id="c5065dbe52"><path d="M 0 23 L 810 23 L 810 25 L 0 25 Z M 0 23 " clip-rule="nonzero"/></clipPath><clipPath id="49f468eab1"><path d="M 0 73 L 810 73 L 810 75 L 0 75 Z M 0 73 " clip-rule="nonzero"/></clipPath><clipPath id="b780305ff5"><path d="M 0 122 L 810 122 L 810 124 L 0 124 Z M 0 122 " clip-rule="nonzero"/></clipPath><clipPath id="95b2fe6e5a"><path d="M 0 172 L 810 172 L 810 174 L 0 174 Z M 0 172 " clip-rule="nonzero"/></clipPath><clipPath id="bb5247004a"><path d="M 0 221 L 810 221 L 810 224 L 0 224 Z M 0 221 " clip-rule="nonzero"/></clipPath><clipPath id="83fd1f43a6"><path d="M 0 271 L 810 271 L 810 273 L 0 273 Z M 0 271 " clip-rule="nonzero"/></clipPath><clipPath id="d424242f40"><path d="M 0 320 L 810 320 L 810 323 L 0 323 Z M 0 320 " clip-rule="nonzero"/></clipPath><clipPath id="5faca3460a"><path d="M 0 370 L 810 370 L 810 372 L 0 372 Z M 0 370 " clip-rule="nonzero"/></clipPath><clipPath id="b031c74e0d"><path d="M 0 419 L 810 419 L 810 422 L 0 422 Z M 0 419 " clip-rule="nonzero"/></clipPath><clipPath id="a972535a4b"><path d="M 0 469 L 810 469 L 810 471 L 0 471 Z M 0 469 " clip-rule="nonzero"/></clipPath><clipPath id="7a62bbbff0"><path d="M 0 518 L 810 518 L 810 521 L 0 521 Z M 0 518 " clip-rule="nonzero"/></clipPath><clipPath id="c9b7add577"><path d="M 0 568 L 810 568 L 810 570 L 0 570 Z M 0 568 " clip-rule="nonzero"/></clipPath><clipPath id="a401d8deb3"><path d="M 0 617 L 810 617 L 810 620 L 0 620 Z M 0 617 " clip-rule="nonzero"/></clipPath><clipPath id="0e460a33a0"><path d="M 0 667 L 810 667 L 810 669 L 0 669 Z M 0 667 " clip-rule="nonzero"/></clipPath><clipPath id="6426050884"><path d="M 0 717 L 810 717 L 810 719 L 0 719 Z M 0 717 " clip-rule="nonzero"/></clipPath><clipPath id="e589b8af09"><path d="M 0 766 L 810 766 L 810 768 L 0 768 Z M 0 766 " clip-rule="nonzero"/></clipPath><clipPath id="f89baf0678"><rect x="0" width="810" y="0" height="810"/></clipPath><clipPath id="b4f9702cb6"><path d="M 399 318 L 411 318 L 411 566.25 L 399 566.25 Z M 399 318 " clip-rule="nonzero"/></clipPath><clipPath id="5f62a0dea4"><path d="M 162.554688 318 L 411 318 L 411 329 L 162.554688 329 Z M 162.554688 318 " clip-rule="nonzero"/></clipPath><clipPath id="3713cf00ee"><path d="M 399 318 L 647.804688 318 L 647.804688 329 L 399 329 Z M 399 318 " clip-rule="nonzero"/></clipPath><clipPath id="cea7789633"><path d="M 0.480469 0.960938 L 513 0.960938 L 513 88 L 0.480469 88 Z M 0.480469 0.960938 " clip-rule="nonzero"/></clipPath><clipPath id="5c60b73c1c"><rect x="0" width="513" y="0" height="88"/></clipPath><clipPath id="c206d2254d"><path d="M 0.480469 84 L 547.679688 84 L 547.679688 126 L 0.480469 126 Z M 0.480469 84 " clip-rule="nonzero"/></clipPath><clipPath id="9b046a3cbb"><rect x="0" width="548" y="0" height="42"/></clipPath><clipPath id="83eb377f2b"><rect x="0" width="548" y="0" height="126"/></clipPath></defs><rect x="-81" width="972" fill="#ffffff" y="-80.999999" height="971.999992" fill-opacity="1"/><rect x="-81" width="972" fill="#2c6652" y="-80.999999" height="971.999992" fill-opacity="1"/><g mask="url(#0ffce478f5)"><g transform="matrix(1, 0, 0, 1, 0, 0.000000000000039746)"><g clip-path="url(#f89baf0678)"><g clip-path="url(#4f58703cb3)"><path fill="#4a7868" d="M 33.511719 809.601562 C 33.148438 809.601562 32.863281 809.316406 32.863281 808.953125 L 32.863281 -17.492188 C 32.863281 -17.855469 33.148438 -18.140625 33.511719 -18.140625 C 33.875 -18.140625 34.160156 -17.855469 34.160156 -17.492188 L 34.160156 808.953125 C 34.160156 809.316406 33.875 809.601562 33.511719 809.601562 Z M 33.511719 809.601562 " fill-opacity="1" fill-rule="nonzero"/></g><g clip-path="url(#91cdc057b9)"><path fill="#4a7868" d="M 83.050781 809.601562 C 82.6875 809.601562 82.402344 809.316406 82.402344 808.953125 L 82.402344 -17.492188 C 82.402344 -17.855469 82.6875 -18.140625 83.050781 -18.140625 C 83.410156 -18.140625 83.699219 -17.855469 83.699219 -17.492188 L 83.699219 808.953125 C 83.699219 809.316406 83.410156 809.601562 83.050781 809.601562 Z M 83.050781 809.601562 " fill-opacity="1" fill-rule="nonzero"/></g><g clip-path="url(#9a2ef26c08)"><path fill="#4a7868" d="M 132.585938 809.601562 C 132.226562 809.601562 131.941406 809.316406 131.941406 808.953125 L 131.941406 -17.492188 C 131.941406 -17.855469 132.226562 -18.140625 132.585938 -18.140625 C 132.949219 -18.140625 133.234375 -17.855469 133.234375 -17.492188 L 133.234375 808.953125 C 133.234375 809.316406 132.949219 809.601562 132.585938 809.601562 Z M 132.585938 809.601562 " fill-opacity="1" fill-rule="nonzero"/></g><g clip-path="url(#2f07ce375c)"><path fill="#4a7868" d="M 182.125 809.601562 C 181.765625 809.601562 181.476562 809.316406 181.476562 808.953125 L 181.476562 -17.492188 C 181.476562 -17.855469 181.765625 -18.140625 182.125 -18.140625 C 182.488281 -18.140625 182.773438 -17.855469 182.773438 -17.492188 L 182.773438 808.953125 C 182.773438 809.316406 182.488281 809.601562 182.125 809.601562 Z M 182.125 809.601562 " fill-opacity="1" fill-rule="nonzero"/></g><g clip-path="url(#125f521f6f)"><path fill="#4a7868" d="M 231.640625 809.601562 C 231.277344 809.601562 230.992188 809.316406 230.992188 808.953125 L 230.992188 -17.492188 C 230.992188 -17.855469 231.277344 -18.140625 231.640625 -18.140625 C 232.003906 -18.140625 232.289062 -17.855469 232.289062 -17.492188 L 232.289062 808.953125 C 232.289062 809.316406 232.003906 809.601562 231.640625 809.601562 Z M 231.640625 809.601562 " fill-opacity="1" fill-rule="nonzero"/></g><g clip-path="url(#cd853e0297)"><path fill="#4a7868" d="M 281.179688 809.601562 C 280.816406 809.601562 280.53125 809.316406 280.53125 808.953125 L 280.53125 -17.492188 C 280.53125 -17.855469 280.816406 -18.140625 281.179688 -18.140625 C 281.542969 -18.140625 281.828125 -17.855469 281.828125 -17.492188 L 281.828125 808.953125 C 281.828125 809.316406 281.542969 809.601562 281.179688 809.601562 Z M 281.179688 809.601562 " fill-opacity="1" fill-rule="nonzero"/></g><g clip-path="url(#60e75eb7d7)"><path fill="#4a7868" d="M 330.71875 809.601562 C 330.355469 809.601562 330.070312 809.316406 330.070312 808.953125 L 330.070312 -17.492188 C 330.070312 -17.855469 330.355469 -18.140625 330.71875 -18.140625 C 331.082031 -18.140625 331.367188 -17.855469 331.367188 -17.492188 L 331.367188 808.953125 C 331.367188 809.316406 331.082031 809.601562 330.71875 809.601562 Z M 330.71875 809.601562 " fill-opacity="1" fill-rule="nonzero"/></g><g clip-path="url(#1c52180528)"><path fill="#4a7868" d="M 380.257812 809.601562 C 379.894531 809.601562 379.609375 809.316406 379.609375 808.953125 L 379.609375 -17.492188 C 379.609375 -17.855469 379.894531 -18.140625 380.257812 -18.140625 C 380.621094 -18.140625 380.90625 -17.855469 380.90625 -17.492188 L 380.90625 808.953125 C 380.90625 809.316406 380.621094 809.601562 380.257812 809.601562 Z M 380.257812 809.601562 " fill-opacity="1" fill-rule="nonzero"/></g><g clip-path="url(#27123f837b)"><path fill="#4a7868" d="M 429.796875 809.601562 C 429.433594 809.601562 429.148438 809.316406 429.148438 808.953125 L 429.148438 -17.492188 C 429.148438 -17.855469 429.433594 -18.140625 429.796875 -18.140625 C 430.160156 -18.140625 430.445312 -17.855469 430.445312 -17.492188 L 430.445312 808.953125 C 430.445312 809.316406 430.160156 809.601562 429.796875 809.601562 Z M 429.796875 809.601562 " fill-opacity="1" fill-rule="nonzero"/></g><g clip-path="url(#eb612bc655)"><path fill="#4a7868" d="M 479.335938 809.601562 C 478.972656 809.601562 478.6875 809.316406 478.6875 808.953125 L 478.6875 -17.492188 C 478.6875 -17.855469 478.972656 -18.140625 479.335938 -18.140625 C 479.699219 -18.140625 479.984375 -17.855469 479.984375 -17.492188 L 479.984375 808.953125 C 479.984375 809.316406 479.699219 809.601562 479.335938 809.601562 Z M 479.335938 809.601562 " fill-opacity="1" fill-rule="nonzero"/></g><g clip-path="url(#c423aca06a)"><path fill="#4a7868" d="M 528.847656 809.601562 C 528.484375 809.601562 528.199219 809.316406 528.199219 808.953125 L 528.199219 -17.492188 C 528.199219 -17.855469 528.484375 -18.140625 528.847656 -18.140625 C 529.210938 -18.140625 529.496094 -17.855469 529.496094 -17.492188 L 529.496094 808.953125 C 529.496094 809.316406 529.210938 809.601562 528.847656 809.601562 Z M 528.847656 809.601562 " fill-opacity="1" fill-rule="nonzero"/></g><g clip-path="url(#c763a25ae6)"><path fill="#4a7868" d="M 578.386719 809.601562 C 578.023438 809.601562 577.738281 809.316406 577.738281 808.953125 L 577.738281 -17.492188 C 577.738281 -17.855469 578.023438 -18.140625 578.386719 -18.140625 C 578.75 -18.140625 579.035156 -17.855469 579.035156 -17.492188 L 579.035156 808.953125 C 579.035156 809.316406 578.75 809.601562 578.386719 809.601562 Z M 578.386719 809.601562 " fill-opacity="1" fill-rule="nonzero"/></g><g clip-path="url(#6f645be931)"><path fill="#4a7868" d="M 627.925781 809.601562 C 627.5625 809.601562 627.277344 809.316406 627.277344 808.953125 L 627.277344 -17.492188 C 627.277344 -17.855469 627.5625 -18.140625 627.925781 -18.140625 C 628.289062 -18.140625 628.574219 -17.855469 628.574219 -17.492188 L 628.574219 808.953125 C 628.574219 809.316406 628.289062 809.601562 627.925781 809.601562 Z M 627.925781 809.601562 " fill-opacity="1" fill-rule="nonzero"/></g><g clip-path="url(#49cabd4eed)"><path fill="#4a7868" d="M 677.464844 809.601562 C 677.101562 809.601562 676.816406 809.316406 676.816406 808.953125 L 676.816406 -17.492188 C 676.816406 -17.855469 677.101562 -18.140625 677.464844 -18.140625 C 677.828125 -18.140625 678.113281 -17.855469 678.113281 -17.492188 L 678.113281 808.953125 C 678.113281 809.316406 677.828125 809.601562 677.464844 809.601562 Z M 677.464844 809.601562 " fill-opacity="1" fill-rule="nonzero"/></g><g clip-path="url(#a0d4f80bac)"><path fill="#4a7868" d="M 727.003906 809.601562 C 726.640625 809.601562 726.355469 809.316406 726.355469 808.953125 L 726.355469 -17.492188 C 726.355469 -17.855469 726.640625 -18.140625 727.003906 -18.140625 C 727.367188 -18.140625 727.652344 -17.855469 727.652344 -17.492188 L 727.652344 808.953125 C 727.652344 809.316406 727.367188 809.601562 727.003906 809.601562 Z M 727.003906 809.601562 " fill-opacity="1" fill-rule="nonzero"/></g><g clip-path="url(#a97f95882b)"><path fill="#4a7868" d="M 776.515625 809.601562 C 776.152344 809.601562 775.867188 809.316406 775.867188 808.953125 L 775.867188 -17.492188 C 775.867188 -17.855469 776.152344 -18.140625 776.515625 -18.140625 C 776.878906 -18.140625 777.164062 -17.855469 777.164062 -17.492188 L 777.164062 808.953125 C 777.164062 809.316406 776.878906 809.601562 776.515625 809.601562 Z M 776.515625 809.601562 " fill-opacity="1" fill-rule="nonzero"/></g><g clip-path="url(#c5065dbe52)"><path fill="#4a7868" d="M 809.402344 24.863281 L 0.648438 24.863281 C 0.285156 24.863281 0 24.578125 0 24.214844 C 0 23.851562 0.285156 23.566406 0.648438 23.566406 L 809.402344 23.566406 C 809.765625 23.566406 810.050781 23.851562 810.050781 24.214844 C 810.050781 24.578125 809.765625 24.863281 809.402344 24.863281 Z M 809.402344 24.863281 " fill-opacity="1" fill-rule="nonzero"/></g><g clip-path="url(#49f468eab1)"><path fill="#4a7868" d="M 809.402344 74.402344 L 0.648438 74.402344 C 0.285156 74.402344 0 74.117188 0 73.753906 C 0 73.390625 0.285156 73.105469 0.648438 73.105469 L 809.402344 73.105469 C 809.765625 73.105469 810.050781 73.390625 810.050781 73.753906 C 810.050781 74.117188 809.765625 74.402344 809.402344 74.402344 Z M 809.402344 74.402344 " fill-opacity="1" fill-rule="nonzero"/></g><g clip-path="url(#b780305ff5)"><path fill="#4a7868" d="M 809.402344 123.941406 L 0.648438 123.941406 C 0.285156 123.941406 0 123.65625 0 123.292969 C 0 122.929688 0.285156 122.644531 0.648438 122.644531 L 809.402344 122.644531 C 809.765625 122.644531 810.050781 122.929688 810.050781 123.292969 C 810.050781 123.65625 809.765625 123.941406 809.402344 123.941406 Z M 809.402344 123.941406 " fill-opacity="1" fill-rule="nonzero"/></g><g clip-path="url(#95b2fe6e5a)"><path fill="#4a7868" d="M 809.402344 173.480469 L 0.648438 173.480469 C 0.285156 173.480469 0 173.195312 0 172.832031 C 0 172.46875 0.285156 172.183594 0.648438 172.183594 L 809.402344 172.183594 C 809.765625 172.183594 810.050781 172.46875 810.050781 172.832031 C 810.050781 173.195312 809.765625 173.480469 809.402344 173.480469 Z M 809.402344 173.480469 " fill-opacity="1" fill-rule="nonzero"/></g><g clip-path="url(#bb5247004a)"><path fill="#4a7868" d="M 809.402344 223.019531 L 0.648438 223.019531 C 0.285156 223.019531 0 222.734375 0 222.371094 C 0 222.007812 0.285156 221.722656 0.648438 221.722656 L 809.402344 221.722656 C 809.765625 221.722656 810.050781 222.007812 810.050781 222.371094 C 810.050781 222.734375 809.765625 223.019531 809.402344 223.019531 Z M 809.402344 223.019531 " fill-opacity="1" fill-rule="nonzero"/></g><g clip-path="url(#83fd1f43a6)"><path fill="#4a7868" d="M 809.402344 272.558594 L 0.648438 272.558594 C 0.285156 272.558594 0 272.269531 0 271.910156 C 0 271.546875 0.285156 271.261719 0.648438 271.261719 L 809.402344 271.261719 C 809.765625 271.261719 810.050781 271.546875 810.050781 271.910156 C 810.050781 272.269531 809.765625 272.558594 809.402344 272.558594 Z M 809.402344 272.558594 " fill-opacity="1" fill-rule="nonzero"/></g><g clip-path="url(#d424242f40)"><path fill="#4a7868" d="M 809.402344 322.070312 L 0.648438 322.070312 C 0.285156 322.070312 0 321.785156 0 321.421875 C 0 321.058594 0.285156 320.773438 0.648438 320.773438 L 809.402344 320.773438 C 809.765625 320.773438 810.050781 321.058594 810.050781 321.421875 C 810.050781 321.785156 809.765625 322.070312 809.402344 322.070312 Z M 809.402344 322.070312 " fill-opacity="1" fill-rule="nonzero"/></g><g clip-path="url(#5faca3460a)"><path fill="#4a7868" d="M 809.402344 371.609375 L 0.648438 371.609375 C 0.285156 371.609375 0 371.324219 0 370.960938 C 0 370.597656 0.285156 370.3125 0.648438 370.3125 L 809.402344 370.3125 C 809.765625 370.3125 810.050781 370.597656 810.050781 370.960938 C 810.050781 371.324219 809.765625 371.609375 809.402344 371.609375 Z M 809.402344 371.609375 " fill-opacity="1" fill-rule="nonzero"/></g><g clip-path="url(#b031c74e0d)"><path fill="#4a7868" d="M 809.402344 421.148438 L 0.648438 421.148438 C 0.285156 421.148438 0 420.863281 0 420.5 C 0 420.136719 0.285156 419.851562 0.648438 419.851562 L 809.402344 419.851562 C 809.765625 419.851562 810.050781 420.136719 810.050781 420.5 C 810.050781 420.863281 809.765625 421.148438 809.402344 421.148438 Z M 809.402344 421.148438 " fill-opacity="1" fill-rule="nonzero"/></g><g clip-path="url(#a972535a4b)"><path fill="#4a7868" d="M 809.402344 470.6875 L 0.648438 470.6875 C 0.285156 470.6875 0 470.402344 0 470.039062 C 0 469.675781 0.285156 469.390625 0.648438 469.390625 L 809.402344 469.390625 C 809.765625 469.390625 810.050781 469.675781 810.050781 470.039062 C 810.050781 470.402344 809.765625 470.6875 809.402344 470.6875 Z M 809.402344 470.6875 " fill-opacity="1" fill-rule="nonzero"/></g><g clip-path="url(#7a62bbbff0)"><path fill="#4a7868" d="M 809.402344 520.226562 L 0.648438 520.226562 C 0.285156 520.226562 0 519.941406 0 519.578125 C 0 519.214844 0.285156 518.929688 0.648438 518.929688 L 809.402344 518.929688 C 809.765625 518.929688 810.050781 519.214844 810.050781 519.578125 C 810.050781 519.941406 809.765625 520.226562 809.402344 520.226562 Z M 809.402344 520.226562 " fill-opacity="1" fill-rule="nonzero"/></g><g clip-path="url(#c9b7add577)"><path fill="#4a7868" d="M 809.402344 569.738281 L 0.648438 569.738281 C 0.285156 569.738281 0 569.453125 0 569.089844 C 0 568.726562 0.285156 568.441406 0.648438 568.441406 L 809.402344 568.441406 C 809.765625 568.441406 810.050781 568.726562 810.050781 569.089844 C 810.050781 569.453125 809.765625 569.738281 809.402344 569.738281 Z M 809.402344 569.738281 " fill-opacity="1" fill-rule="nonzero"/></g><g clip-path="url(#a401d8deb3)"><path fill="#4a7868" d="M 809.402344 619.277344 L 0.648438 619.277344 C 0.285156 619.277344 0 618.992188 0 618.628906 C 0 618.265625 0.285156 617.980469 0.648438 617.980469 L 809.402344 617.980469 C 809.765625 617.980469 810.050781 618.265625 810.050781 618.628906 C 810.050781 618.992188 809.765625 619.277344 809.402344 619.277344 Z M 809.402344 619.277344 " fill-opacity="1" fill-rule="nonzero"/></g><g clip-path="url(#0e460a33a0)"><path fill="#4a7868" d="M 809.402344 668.816406 L 0.648438 668.816406 C 0.285156 668.816406 0 668.53125 0 668.167969 C 0 667.804688 0.285156 667.519531 0.648438 667.519531 L 809.402344 667.519531 C 809.765625 667.519531 810.050781 667.804688 810.050781 668.167969 C 810.050781 668.53125 809.765625 668.816406 809.402344 668.816406 Z M 809.402344 668.816406 " fill-opacity="1" fill-rule="nonzero"/></g><g clip-path="url(#6426050884)"><path fill="#4a7868" d="M 809.402344 718.355469 L 0.648438 718.355469 C 0.285156 718.355469 0 718.070312 0 717.707031 C 0 717.34375 0.285156 717.058594 0.648438 717.058594 L 809.402344 717.058594 C 809.765625 717.058594 810.050781 717.34375 810.050781 717.707031 C 810.050781 718.070312 809.765625 718.355469 809.402344 718.355469 Z M 809.402344 718.355469 " fill-opacity="1" fill-rule="nonzero"/></g><g clip-path="url(#e589b8af09)"><path fill="#4a7868" d="M 809.402344 767.894531 L 0.648438 767.894531 C 0.285156 767.894531 0 767.609375 0 767.246094 C 0 766.882812 0.285156 766.597656 0.648438 766.597656 L 809.402344 766.597656 C 809.765625 766.597656 810.050781 766.882812 810.050781 767.246094 C 810.050781 767.609375 809.765625 767.894531 809.402344 767.894531 Z M 809.402344 767.894531 " fill-opacity="1" fill-rule="nonzero"/></g></g></g></g><g clip-path="url(#b4f9702cb6)"><path fill="#ffffff" d="M 405.15625 566.066406 C 402.230469 566.066406 399.859375 563.695312 399.859375 560.769531 L 399.859375 323.597656 C 399.859375 320.671875 402.230469 318.300781 405.152344 318.300781 C 408.074219 318.300781 410.445312 320.671875 410.445312 323.597656 L 410.445312 560.769531 C 410.445312 563.695312 408.074219 566.066406 405.15625 566.066406 Z M 405.15625 566.066406 " fill-opacity="1" fill-rule="evenodd"/></g><g clip-path="url(#5f62a0dea4)"><path fill="#ffffff" d="M 405.15625 328.890625 L 167.980469 328.890625 C 165.058594 328.890625 162.683594 326.519531 162.683594 323.597656 C 162.683594 320.671875 165.054688 318.300781 167.976562 318.300781 L 405.15625 318.300781 C 408.074219 318.300781 410.445312 320.671875 410.445312 323.597656 C 410.445312 326.515625 408.074219 328.890625 405.15625 328.890625 Z M 405.15625 328.890625 " fill-opacity="1" fill-rule="evenodd"/></g><path fill="#ffffff" d="M 405.15625 328.886719 C 402.230469 328.886719 399.859375 326.519531 399.859375 323.597656 L 399.859375 86.417969 C 399.859375 83.496094 402.230469 81.125 405.152344 81.125 C 408.074219 81.125 410.445312 83.496094 410.445312 86.417969 L 410.445312 323.597656 C 410.445312 326.515625 408.074219 328.890625 405.152344 328.890625 Z M 405.15625 328.886719 " fill-opacity="1" fill-rule="evenodd"/><g clip-path="url(#3713cf00ee)"><path fill="#ffffff" d="M 642.328125 328.890625 L 405.15625 328.890625 C 402.234375 328.890625 399.859375 326.519531 399.859375 323.597656 C 399.863281 320.671875 402.230469 318.300781 405.152344 318.300781 L 642.328125 318.300781 C 645.265625 318.300781 647.621094 320.671875 647.621094 323.597656 C 647.625 326.515625 645.261719 328.890625 642.328125 328.890625 Z M 642.328125 328.890625 " fill-opacity="1" fill-rule="evenodd"/></g><path fill="#ffffff" d="M 405.15625 124.195312 C 295.207031 124.195312 205.75 213.644531 205.75 323.597656 C 205.753906 433.546875 295.203125 522.996094 405.152344 522.996094 C 515.109375 522.996094 604.554688 433.546875 604.554688 323.597656 C 604.554688 279.570312 590.589844 238.0625 564.121094 203.21875 C 553.269531 209.5625 539.175781 208.015625 529.953125 198.796875 C 520.734375 189.578125 519.191406 175.476562 525.53125 164.628906 C 490.683594 138.15625 449.179688 124.195312 405.15625 124.195312 Z M 405.15625 533.582031 C 289.375 533.582031 195.164062 439.386719 195.164062 323.597656 C 195.164062 207.808594 289.371094 113.609375 405.152344 113.609375 C 453.28125 113.605469 498.566406 129.460938 536.121094 159.457031 C 537.253906 160.363281 537.972656 161.699219 538.082031 163.152344 C 538.21875 164.601562 537.730469 166.039062 536.757812 167.121094 C 530.53125 174.074219 530.824219 184.703125 537.441406 191.3125 C 544.050781 197.921875 554.671875 198.222656 561.628906 191.996094 C 562.710938 191.023438 564.15625 190.546875 565.597656 190.664062 C 567.058594 190.785156 568.390625 191.5 569.292969 192.636719 C 599.292969 230.175781 615.140625 275.460938 615.140625 323.597656 C 615.144531 439.382812 520.945312 533.585938 405.152344 533.585938 Z M 405.15625 533.582031 " fill-opacity="1" fill-rule="evenodd"/><path fill="#ffffff" d="M 405.15625 383.847656 C 402.230469 383.847656 399.859375 381.480469 399.859375 378.558594 C 399.859375 375.632812 402.230469 373.265625 405.152344 373.265625 C 432.550781 373.261719 454.824219 350.984375 454.824219 323.597656 C 454.832031 296.207031 432.546875 273.925781 405.152344 273.925781 C 377.769531 273.925781 355.488281 296.207031 355.488281 323.597656 C 355.492188 336.863281 360.648438 349.335938 370.035156 358.714844 C 372.101562 360.78125 372.097656 364.136719 370.035156 366.203125 C 367.964844 368.269531 364.609375 368.269531 362.546875 366.203125 C 351.167969 354.820312 344.902344 339.691406 344.902344 323.597656 C 344.90625 290.371094 371.933594 263.339844 405.152344 263.339844 C 438.382812 263.339844 465.414062 290.371094 465.414062 323.597656 C 465.414062 356.820312 438.382812 383.851562 405.152344 383.851562 Z M 405.15625 383.847656 " fill-opacity="1" fill-rule="evenodd"/><path fill="#ffffff" d="M 260.410156 473.628906 C 259.066406 473.628906 257.707031 473.113281 256.671875 472.082031 C 254.609375 470.011719 254.609375 466.660156 256.671875 464.59375 L 401.414062 319.851562 C 403.476562 317.785156 406.828125 317.785156 408.902344 319.851562 C 410.96875 321.917969 410.964844 325.273438 408.902344 327.339844 L 264.164062 472.078125 C 263.125 473.113281 261.765625 473.632812 260.410156 473.628906 Z M 260.410156 473.628906 " fill-opacity="1" fill-rule="evenodd"/><path fill="#ffffff" d="M 330.992188 403.042969 C 329.648438 403.042969 328.292969 402.53125 327.253906 401.496094 C 306.445312 380.6875 294.984375 353.023438 294.984375 323.597656 C 294.988281 312.324219 296.683594 301.203125 300.035156 290.535156 C 300.917969 287.746094 303.882812 286.191406 306.675781 287.074219 C 309.46875 287.949219 311.019531 290.921875 310.136719 293.710938 C 307.117188 303.347656 305.574219 313.402344 305.574219 323.597656 C 305.574219 350.195312 315.941406 375.203125 334.742188 394.011719 C 336.804688 396.078125 336.804688 399.429688 334.742188 401.496094 C 333.707031 402.527344 332.351562 403.046875 330.992188 403.042969 Z M 405.15625 433.761719 C 402.230469 433.761719 399.859375 431.394531 399.859375 428.46875 C 399.859375 425.546875 402.230469 423.175781 405.152344 423.175781 C 460.066406 423.175781 504.730469 378.503906 504.730469 323.597656 C 504.734375 268.6875 460.0625 224.019531 405.152344 224.019531 C 377.347656 224.019531 350.601562 235.773438 331.789062 256.273438 C 329.816406 258.425781 326.460938 258.570312 324.308594 256.59375 C 322.160156 254.613281 322.015625 251.265625 323.988281 249.113281 C 344.816406 226.433594 374.390625 213.429688 405.152344 213.429688 C 465.902344 213.429688 515.316406 262.851562 515.316406 323.597656 C 515.320312 384.339844 465.898438 433.765625 405.152344 433.765625 Z M 405.15625 433.761719 " fill-opacity="1" fill-rule="evenodd"/><path fill="#ffffff" d="M 295.703125 438.335938 C 294.359375 438.335938 293 437.820312 291.960938 436.785156 C 261.734375 406.550781 245.078125 366.351562 245.078125 323.597656 C 245.078125 235.328125 316.886719 163.515625 405.152344 163.515625 C 493.425781 163.515625 565.234375 235.328125 565.234375 323.597656 C 565.238281 358.1875 554.371094 391.125 533.8125 418.84375 C 532.074219 421.191406 528.761719 421.6875 526.414062 419.945312 C 524.070312 418.199219 523.570312 414.886719 525.308594 412.539062 C 544.5 386.65625 554.648438 355.902344 554.648438 323.597656 C 554.652344 241.164062 487.582031 174.105469 405.152344 174.105469 C 322.726562 174.105469 255.667969 241.167969 255.667969 323.597656 C 255.671875 363.527344 271.214844 401.066406 299.449219 429.300781 C 301.515625 431.367188 301.511719 434.71875 299.449219 436.785156 C 298.417969 437.820312 297.058594 438.335938 295.703125 438.335938 Z M 405.15625 483.671875 C 402.230469 483.671875 399.859375 481.304688 399.859375 478.378906 C 399.859375 475.453125 402.230469 473.085938 405.152344 473.085938 C 437.46875 473.082031 468.226562 462.941406 494.097656 443.75 C 496.449219 442.011719 499.769531 442.503906 501.5 444.851562 C 503.242188 447.195312 502.757812 450.515625 500.40625 452.257812 C 472.691406 472.808594 439.75 483.671875 405.152344 483.671875 Z M 405.15625 483.671875 " fill-opacity="1" fill-rule="evenodd"/><path fill="#ffffff" d="M 537.445312 191.3125 C 544.304688 198.179688 555.484375 198.179688 562.355469 191.3125 C 569.234375 184.441406 569.230469 173.265625 562.355469 166.398438 C 555.488281 159.527344 544.304688 159.53125 537.441406 166.398438 C 530.574219 173.265625 530.570312 184.441406 537.441406 191.3125 Z M 549.898438 207.058594 C 542.363281 207.058594 535.28125 204.125 529.953125 198.796875 L 529.957031 198.796875 C 518.960938 187.800781 518.957031 169.90625 529.953125 158.910156 C 540.953125 147.910156 558.839844 147.914062 569.84375 158.910156 C 580.84375 169.90625 580.839844 187.800781 569.84375 198.796875 C 564.523438 204.125 557.425781 207.058594 549.898438 207.058594 Z M 549.898438 207.058594 " fill-opacity="1" fill-rule="evenodd"/><path fill="#ffffff" d="M 314.363281 253.535156 C 312.828125 253.535156 311.296875 253.734375 309.773438 254.140625 C 305.230469 255.359375 301.425781 258.277344 299.078125 262.351562 C 296.730469 266.425781 296.097656 271.171875 297.3125 275.71875 C 298.535156 280.261719 301.449219 284.0625 305.527344 286.414062 C 309.597656 288.765625 314.339844 289.394531 318.894531 288.175781 C 318.898438 288.171875 318.894531 288.175781 318.894531 288.175781 C 323.441406 286.957031 327.234375 284.042969 329.59375 279.96875 C 331.941406 275.890625 332.570312 271.144531 331.347656 266.601562 C 330.136719 262.054688 327.210938 258.253906 323.140625 255.902344 C 320.429688 254.332031 317.417969 253.535156 314.363281 253.535156 Z M 314.289062 299.375 C 309.398438 299.375 304.578125 298.09375 300.234375 295.585938 C 293.707031 291.816406 289.039062 285.734375 287.089844 278.457031 C 285.136719 271.183594 286.140625 263.582031 289.910156 257.058594 C 293.671875 250.53125 299.761719 245.867188 307.027344 243.914062 C 314.308594 241.960938 321.90625 242.964844 328.433594 246.734375 C 334.964844 250.5 339.628906 256.582031 341.582031 263.859375 C 343.527344 271.136719 342.53125 278.738281 338.757812 285.261719 C 334.988281 291.785156 328.910156 296.453125 321.628906 298.402344 L 321.632812 298.402344 C 319.207031 299.050781 316.734375 299.375 314.285156 299.375 Z M 314.289062 299.375 " fill-opacity="1" fill-rule="evenodd"/><path fill="#ffffff" d="M 514.605469 415.425781 C 504.886719 415.425781 496.988281 423.328125 496.988281 433.042969 C 496.992188 442.757812 504.882812 450.660156 514.601562 450.660156 C 524.320312 450.660156 532.226562 442.757812 532.226562 433.042969 C 532.226562 423.328125 524.316406 415.425781 514.605469 415.425781 Z M 514.605469 461.25 C 499.054688 461.25 486.402344 448.59375 486.402344 433.042969 C 486.402344 417.488281 499.050781 404.839844 514.601562 404.839844 C 530.152344 404.839844 542.8125 417.492188 542.8125 433.042969 C 542.8125 448.59375 530.152344 461.25 514.605469 461.25 Z M 514.605469 461.25 " fill-opacity="1" fill-rule="evenodd"/><g transform="matrix(1, 0, 0, 1, 126, 594)"><g clip-path="url(#83eb377f2b)"><g clip-path="url(#cea7789633)"><g transform="matrix(1, 0, 0, 1, 0, 0.000000000000113687)"><g clip-path="url(#5c60b73c1c)"><g fill="#ffffff" fill-opacity="1"><g transform="translate(0.534489, 69.092987)"><g><path d="M 19.765625 0 L 7.78125 0 L 7.78125 -65.390625 L 19.765625 -65.390625 Z M 19.765625 0 "/></g></g></g><g fill="#ffffff" fill-opacity="1"><g transform="translate(22.319547, 69.092987)"><g><path d="M 19.765625 0 L 7.78125 0 L 7.78125 -65.390625 L 18.078125 -65.390625 L 53.703125 -19.609375 L 53.703125 -65.390625 L 65.625 -65.390625 L 65.625 0 L 55.390625 0 L 19.765625 -45.71875 Z M 19.765625 0 "/></g></g></g><g fill="#ffffff" fill-opacity="1"><g transform="translate(90.01424, 69.092987)"><g><path d="M 61.015625 -65.390625 L 37.6875 -36.4375 L 64.328125 0 L 50.140625 0 L 29.859375 -27.75 L 19.765625 -15.09375 L 19.765625 0 L 7.78125 0 L 7.78125 -65.390625 L 19.765625 -65.390625 L 19.765625 -30.96875 L 47.015625 -65.390625 Z M 61.015625 -65.390625 "/></g></g></g><g fill="#ffffff" fill-opacity="1"><g transform="translate(149.296172, 69.092987)"><g><path d="M 66.203125 0 L 53.5625 0 L 48.375 -12.640625 L 18.265625 -12.640625 L 13.078125 0 L 0.4375 0 L 27.640625 -65.4375 L 39 -65.4375 Z M 32.890625 -48.421875 L 22.359375 -22.640625 L 44.28125 -22.640625 L 33.703125 -48.421875 L 33.421875 -50 L 33.265625 -50 Z M 32.890625 -48.421875 "/></g></g></g><g fill="#ffffff" fill-opacity="1"><g transform="translate(210.260657, 69.092987)"><g><path d="M 33.46875 0 L 21.546875 0 L 21.546875 -54.71875 L 2.0625 -54.71875 L 2.0625 -65.390625 L 52.9375 -65.390625 L 52.9375 -54.71875 L 33.46875 -54.71875 Z M 33.46875 0 "/></g></g></g><g fill="#ffffff" fill-opacity="1"><g transform="translate(259.543423, 69.092987)"><g><path d="M 19.765625 0 L 7.78125 0 L 7.78125 -65.390625 L 36.015625 -65.390625 C 39.316406 -65.390625 42.351562 -64.882812 45.125 -63.875 C 47.894531 -62.863281 50.289062 -61.410156 52.3125 -59.515625 C 54.332031 -57.628906 55.898438 -55.378906 57.015625 -52.765625 C 58.140625 -50.148438 58.703125 -47.257812 58.703125 -44.09375 C 58.703125 -41.007812 58.148438 -38.203125 57.046875 -35.671875 C 55.941406 -33.140625 54.394531 -30.96875 52.40625 -29.15625 C 50.414062 -27.34375 48.078125 -25.972656 45.390625 -25.046875 L 60.203125 0 L 46.453125 0 L 33.515625 -23.21875 C 33.097656 -23.1875 32.679688 -23.171875 32.265625 -23.171875 C 31.847656 -23.171875 31.414062 -23.171875 30.96875 -23.171875 L 19.765625 -23.171875 Z M 19.765625 -54.71875 L 19.765625 -33.265625 L 35.578125 -33.265625 C 37.691406 -33.296875 39.585938 -33.769531 41.265625 -34.6875 C 42.953125 -35.601562 44.285156 -36.867188 45.265625 -38.484375 C 46.242188 -40.109375 46.734375 -41.976562 46.734375 -44.09375 C 46.734375 -46.082031 46.234375 -47.875 45.234375 -49.46875 C 44.242188 -51.070312 42.90625 -52.347656 41.21875 -53.296875 C 39.539062 -54.242188 37.644531 -54.71875 35.53125 -54.71875 Z M 19.765625 -54.71875 "/></g></g></g><g fill="#ffffff" fill-opacity="1"><g transform="translate(316.085198, 69.092987)"><g><path d="M 66.203125 0 L 53.5625 0 L 48.375 -12.640625 L 18.265625 -12.640625 L 13.078125 0 L 0.4375 0 L 27.640625 -65.4375 L 39 -65.4375 Z M 32.890625 -48.421875 L 22.359375 -22.640625 L 44.28125 -22.640625 L 33.703125 -48.421875 L 33.421875 -50 L 33.265625 -50 Z M 32.890625 -48.421875 "/></g></g></g><g fill="#ffffff" fill-opacity="1"><g transform="translate(377.049683, 69.092987)"><g><path d="M 37.6875 1.390625 C 33.84375 1.390625 30.191406 0.820312 26.734375 -0.3125 C 23.273438 -1.445312 20.109375 -3.054688 17.234375 -5.140625 C 14.367188 -7.222656 11.882812 -9.691406 9.78125 -12.546875 C 7.6875 -15.398438 6.0625 -18.539062 4.90625 -21.96875 C 3.75 -25.40625 3.171875 -29.015625 3.171875 -32.796875 C 3.171875 -36.609375 3.75 -40.21875 4.90625 -43.625 C 6.0625 -47.039062 7.6875 -50.164062 9.78125 -53 C 11.882812 -55.84375 14.367188 -58.304688 17.234375 -60.390625 C 20.109375 -62.472656 23.273438 -64.082031 26.734375 -65.21875 C 30.191406 -66.351562 33.84375 -66.921875 37.6875 -66.921875 C 41.15625 -66.921875 44.585938 -66.40625 47.984375 -65.375 C 51.378906 -64.351562 54.550781 -62.789062 57.5 -60.6875 C 60.445312 -58.59375 62.945312 -55.941406 65 -52.734375 C 67.050781 -49.535156 68.460938 -45.753906 69.234375 -41.390625 L 57.015625 -41.390625 C 56.148438 -44.765625 54.765625 -47.523438 52.859375 -49.671875 C 50.953125 -51.816406 48.664062 -53.398438 46 -54.421875 C 43.34375 -55.453125 40.460938 -55.96875 37.359375 -55.96875 C 34.285156 -55.96875 31.398438 -55.410156 28.703125 -54.296875 C 26.015625 -53.191406 23.648438 -51.613281 21.609375 -49.5625 C 19.578125 -47.519531 17.988281 -45.078125 16.84375 -42.234375 C 15.707031 -39.398438 15.140625 -36.238281 15.140625 -32.75 C 15.140625 -29.1875 15.707031 -25.984375 16.84375 -23.140625 C 17.988281 -20.304688 19.578125 -17.878906 21.609375 -15.859375 C 23.648438 -13.847656 26.015625 -12.300781 28.703125 -11.21875 C 31.398438 -10.144531 34.285156 -9.609375 37.359375 -9.609375 C 40.460938 -9.609375 43.335938 -10.117188 45.984375 -11.140625 C 48.628906 -12.171875 50.910156 -13.757812 52.828125 -15.90625 C 54.753906 -18.0625 56.132812 -20.804688 56.96875 -24.140625 L 69.234375 -24.140625 C 68.460938 -19.773438 67.050781 -15.984375 65 -12.765625 C 62.945312 -9.546875 60.460938 -6.894531 57.546875 -4.8125 C 54.628906 -2.726562 51.460938 -1.171875 48.046875 -0.140625 C 44.640625 0.878906 41.1875 1.390625 37.6875 1.390625 Z M 37.6875 1.390625 "/></g></g></g><g fill="#ffffff" fill-opacity="1"><g transform="translate(443.782917, 69.092987)"><g><path d="M 53.03125 0 L 7.78125 0 L 7.78125 -65.390625 L 52.59375 -65.390625 L 52.59375 -54.671875 L 19.765625 -54.671875 L 19.765625 -38.265625 L 48.125 -38.265625 L 48.125 -28.171875 L 19.765625 -28.171875 L 19.765625 -10.71875 L 53.03125 -10.71875 Z M 53.03125 0 "/></g></g></g><g fill="#ffffff" fill-opacity="1"><g transform="translate(494.238873, 69.092987)"><g/></g></g></g></g></g><g clip-path="url(#c206d2254d)"><g transform="matrix(1, 0, 0, 1, 0, 84)"><g clip-path="url(#9b046a3cbb)"><g fill="#ffffff" fill-opacity="1"><g transform="translate(0.534489, 33.15772)"><g><path d="M 9.34375 0 L 3.6875 0 L 3.6875 -30.9375 L 24.875 -30.9375 L 24.875 -25.859375 L 9.34375 -25.859375 L 9.34375 -16.921875 L 22.765625 -16.921875 L 22.765625 -12.140625 L 9.34375 -12.140625 Z M 9.34375 0 "/></g></g></g><g fill="#ffffff" fill-opacity="1"><g transform="translate(24.031452, 33.15772)"><g><path d="M 18.171875 0.65625 C 16.335938 0.65625 14.585938 0.390625 12.921875 -0.140625 C 11.253906 -0.679688 9.722656 -1.441406 8.328125 -2.421875 C 6.941406 -3.410156 5.738281 -4.578125 4.71875 -5.921875 C 3.695312 -7.273438 2.90625 -8.765625 2.34375 -10.390625 C 1.78125 -12.015625 1.5 -13.722656 1.5 -15.515625 C 1.5 -17.316406 1.78125 -19.023438 2.34375 -20.640625 C 2.90625 -22.253906 3.695312 -23.734375 4.71875 -25.078125 C 5.738281 -26.421875 6.941406 -27.582031 8.328125 -28.5625 C 9.722656 -29.550781 11.253906 -30.3125 12.921875 -30.84375 C 14.585938 -31.382812 16.335938 -31.65625 18.171875 -31.65625 C 20.003906 -31.65625 21.753906 -31.382812 23.421875 -30.84375 C 25.085938 -30.3125 26.617188 -29.550781 28.015625 -28.5625 C 29.410156 -27.582031 30.617188 -26.421875 31.640625 -25.078125 C 32.671875 -23.734375 33.460938 -22.253906 34.015625 -20.640625 C 34.578125 -19.023438 34.859375 -17.316406 34.859375 -15.515625 C 34.859375 -13.722656 34.578125 -12.015625 34.015625 -10.390625 C 33.460938 -8.765625 32.671875 -7.273438 31.640625 -5.921875 C 30.617188 -4.578125 29.410156 -3.410156 28.015625 -2.421875 C 26.617188 -1.441406 25.09375 -0.679688 23.4375 -0.140625 C 21.78125 0.390625 20.023438 0.65625 18.171875 0.65625 Z M 18.171875 -4.546875 C 19.703125 -4.546875 21.132812 -4.816406 22.46875 -5.359375 C 23.800781 -5.910156 24.972656 -6.675781 25.984375 -7.65625 C 27.003906 -8.644531 27.796875 -9.804688 28.359375 -11.140625 C 28.929688 -12.472656 29.21875 -13.921875 29.21875 -15.484375 C 29.21875 -17.066406 28.929688 -18.523438 28.359375 -19.859375 C 27.796875 -21.203125 27.003906 -22.363281 25.984375 -23.34375 C 24.972656 -24.332031 23.800781 -25.097656 22.46875 -25.640625 C 21.132812 -26.191406 19.703125 -26.46875 18.171875 -26.46875 C 16.648438 -26.46875 15.222656 -26.191406 13.890625 -25.640625 C 12.554688 -25.097656 11.382812 -24.332031 10.375 -23.34375 C 9.375 -22.351562 8.585938 -21.191406 8.015625 -19.859375 C 7.453125 -18.523438 7.171875 -17.066406 7.171875 -15.484375 C 7.171875 -13.921875 7.453125 -12.472656 8.015625 -11.140625 C 8.585938 -9.804688 9.375 -8.644531 10.375 -7.65625 C 11.382812 -6.675781 12.554688 -5.910156 13.890625 -5.359375 C 15.222656 -4.816406 16.648438 -4.546875 18.171875 -4.546875 Z M 18.171875 -4.546875 "/></g></g></g><g fill="#ffffff" fill-opacity="1"><g transform="translate(57.694181, 33.15772)"><g><path d="M 9.34375 0 L 3.6875 0 L 3.6875 -30.9375 L 17.03125 -30.9375 C 18.59375 -30.9375 20.03125 -30.695312 21.34375 -30.21875 C 22.65625 -29.738281 23.785156 -29.050781 24.734375 -28.15625 C 25.691406 -27.257812 26.4375 -26.191406 26.96875 -24.953125 C 27.5 -23.722656 27.765625 -22.359375 27.765625 -20.859375 C 27.765625 -19.398438 27.503906 -18.070312 26.984375 -16.875 C 26.460938 -15.675781 25.726562 -14.648438 24.78125 -13.796875 C 23.84375 -12.941406 22.738281 -12.289062 21.46875 -11.84375 L 28.46875 0 L 21.96875 0 L 15.859375 -10.984375 C 15.660156 -10.972656 15.460938 -10.96875 15.265625 -10.96875 C 15.066406 -10.96875 14.859375 -10.96875 14.640625 -10.96875 L 9.34375 -10.96875 Z M 9.34375 -25.875 L 9.34375 -15.734375 L 16.828125 -15.734375 C 17.828125 -15.753906 18.722656 -15.976562 19.515625 -16.40625 C 20.316406 -16.84375 20.945312 -17.441406 21.40625 -18.203125 C 21.875 -18.972656 22.109375 -19.859375 22.109375 -20.859375 C 22.109375 -21.796875 21.875 -22.644531 21.40625 -23.40625 C 20.9375 -24.164062 20.300781 -24.765625 19.5 -25.203125 C 18.707031 -25.648438 17.8125 -25.875 16.8125 -25.875 Z M 9.34375 -25.875 "/></g></g></g><g fill="#ffffff" fill-opacity="1"><g transform="translate(84.44328, 33.15772)"><g/></g></g><g fill="#ffffff" fill-opacity="1"><g transform="translate(93.089583, 33.15772)"><g><path d="M 31.3125 0 L 25.34375 0 L 22.875 -5.984375 L 8.640625 -5.984375 L 6.1875 0 L 0.203125 0 L 13.078125 -30.953125 L 18.4375 -30.953125 Z M 15.5625 -22.90625 L 10.578125 -10.71875 L 20.953125 -10.71875 L 15.9375 -22.90625 L 15.8125 -23.65625 L 15.734375 -23.65625 Z M 15.5625 -22.90625 "/></g></g></g><g fill="#ffffff" fill-opacity="1"><g transform="translate(121.930965, 33.15772)"><g><path d="M 17.828125 0.65625 C 16.003906 0.65625 14.273438 0.390625 12.640625 -0.140625 C 11.003906 -0.679688 9.507812 -1.441406 8.15625 -2.421875 C 6.800781 -3.410156 5.625 -4.578125 4.625 -5.921875 C 3.632812 -7.273438 2.863281 -8.765625 2.3125 -10.390625 C 1.769531 -12.015625 1.5 -13.722656 1.5 -15.515625 C 1.5 -17.316406 1.769531 -19.023438 2.3125 -20.640625 C 2.863281 -22.253906 3.632812 -23.734375 4.625 -25.078125 C 5.625 -26.421875 6.800781 -27.582031 8.15625 -28.5625 C 9.507812 -29.550781 11.003906 -30.3125 12.640625 -30.84375 C 14.273438 -31.382812 16.003906 -31.65625 17.828125 -31.65625 C 19.460938 -31.65625 21.082031 -31.410156 22.6875 -30.921875 C 24.300781 -30.441406 25.804688 -29.703125 27.203125 -28.703125 C 28.597656 -27.710938 29.78125 -26.457031 30.75 -24.9375 C 31.71875 -23.425781 32.382812 -21.640625 32.75 -19.578125 L 26.96875 -19.578125 C 26.5625 -21.171875 25.90625 -22.472656 25 -23.484375 C 24.101562 -24.503906 23.023438 -25.253906 21.765625 -25.734375 C 20.503906 -26.222656 19.140625 -26.46875 17.671875 -26.46875 C 16.210938 -26.46875 14.847656 -26.207031 13.578125 -25.6875 C 12.304688 -25.164062 11.1875 -24.421875 10.21875 -23.453125 C 9.257812 -22.484375 8.507812 -21.328125 7.96875 -19.984375 C 7.4375 -18.640625 7.171875 -17.140625 7.171875 -15.484375 C 7.171875 -13.804688 7.4375 -12.296875 7.96875 -10.953125 C 8.507812 -9.609375 9.257812 -8.457031 10.21875 -7.5 C 11.1875 -6.550781 12.304688 -5.820312 13.578125 -5.3125 C 14.847656 -4.800781 16.210938 -4.546875 17.671875 -4.546875 C 19.140625 -4.546875 20.5 -4.785156 21.75 -5.265625 C 23 -5.753906 24.078125 -6.503906 24.984375 -7.515625 C 25.898438 -8.535156 26.554688 -9.835938 26.953125 -11.421875 L 32.75 -11.421875 C 32.382812 -9.359375 31.71875 -7.5625 30.75 -6.03125 C 29.78125 -4.507812 28.601562 -3.253906 27.21875 -2.265625 C 25.84375 -1.285156 24.347656 -0.550781 22.734375 -0.0625 C 21.117188 0.414062 19.484375 0.65625 17.828125 0.65625 Z M 17.828125 0.65625 "/></g></g></g><g fill="#ffffff" fill-opacity="1"><g transform="translate(153.501411, 33.15772)"><g><path d="M 15.828125 0 L 10.1875 0 L 10.1875 -25.875 L 0.984375 -25.875 L 0.984375 -30.9375 L 25.046875 -30.9375 L 25.046875 -25.875 L 15.828125 -25.875 Z M 15.828125 0 "/></g></g></g><g fill="#ffffff" fill-opacity="1"><g transform="translate(176.816436, 33.15772)"><g><path d="M 9.34375 0 L 3.6875 0 L 3.6875 -30.9375 L 9.34375 -30.9375 Z M 9.34375 0 "/></g></g></g><g fill="#ffffff" fill-opacity="1"><g transform="translate(187.12292, 33.15772)"><g><path d="M 18.46875 0 L 13.3125 0 L 0.34375 -30.953125 L 6.328125 -30.953125 L 15.859375 -7.390625 L 15.9375 -7.4375 L 25.453125 -30.953125 L 31.453125 -30.953125 Z M 18.46875 0 "/></g></g></g><g fill="#ffffff" fill-opacity="1"><g transform="translate(216.214465, 33.15772)"><g><path d="M 9.34375 0 L 3.6875 0 L 3.6875 -30.9375 L 9.34375 -30.9375 Z M 9.34375 0 "/></g></g></g><g fill="#ffffff" fill-opacity="1"><g transform="translate(226.520949, 33.15772)"><g><path d="M 15.828125 0 L 10.1875 0 L 10.1875 -25.875 L 0.984375 -25.875 L 0.984375 -30.9375 L 25.046875 -30.9375 L 25.046875 -25.875 L 15.828125 -25.875 Z M 15.828125 0 "/></g></g></g><g fill="#ffffff" fill-opacity="1"><g transform="translate(249.835974, 33.15772)"><g><path d="M 18.171875 0 L 12.515625 0 L 12.515625 -11.765625 L 0.34375 -30.9375 L 6.9375 -30.9375 L 15.359375 -16.8125 L 15.375 -16.8125 L 23.71875 -30.9375 L 30.390625 -30.9375 L 18.171875 -11.796875 Z M 18.171875 0 "/></g></g></g><g fill="#ffffff" fill-opacity="1"><g transform="translate(277.858637, 33.15772)"><g/></g></g><g fill="#ffffff" fill-opacity="1"><g transform="translate(286.50494, 33.15772)"><g><path d="M 31.5625 0 L 24.921875 0 C 24.515625 -0.457031 24.101562 -0.914062 23.6875 -1.375 C 23.269531 -1.832031 22.847656 -2.289062 22.421875 -2.75 C 21.015625 -1.6875 19.503906 -0.851562 17.890625 -0.25 C 16.285156 0.351562 14.664062 0.65625 13.03125 0.65625 C 11.488281 0.65625 10.035156 0.4375 8.671875 0 C 7.304688 -0.4375 6.109375 -1.0625 5.078125 -1.875 C 4.046875 -2.6875 3.238281 -3.648438 2.65625 -4.765625 C 2.070312 -5.890625 1.78125 -7.132812 1.78125 -8.5 C 1.78125 -9.695312 1.992188 -10.753906 2.421875 -11.671875 C 2.859375 -12.585938 3.425781 -13.398438 4.125 -14.109375 C 4.832031 -14.828125 5.601562 -15.460938 6.4375 -16.015625 C 7.28125 -16.578125 8.117188 -17.09375 8.953125 -17.5625 C 8.378906 -18.0625 7.8125 -18.65625 7.25 -19.34375 C 6.6875 -20.03125 6.222656 -20.796875 5.859375 -21.640625 C 5.503906 -22.492188 5.328125 -23.398438 5.328125 -24.359375 C 5.328125 -25.816406 5.703125 -27.09375 6.453125 -28.1875 C 7.203125 -29.289062 8.238281 -30.148438 9.5625 -30.765625 C 10.882812 -31.378906 12.40625 -31.675781 14.125 -31.65625 C 15.894531 -31.65625 17.445312 -31.367188 18.78125 -30.796875 C 20.113281 -30.222656 21.148438 -29.390625 21.890625 -28.296875 C 22.628906 -27.203125 23 -25.878906 23 -24.328125 C 23 -23.148438 22.710938 -22.085938 22.140625 -21.140625 C 21.566406 -20.191406 20.8125 -19.34375 19.875 -18.59375 C 18.945312 -17.84375 17.945312 -17.171875 16.875 -16.578125 L 23.0625 -9.71875 C 23.664062 -10.5625 24.160156 -11.46875 24.546875 -12.4375 C 24.929688 -13.40625 25.179688 -14.414062 25.296875 -15.46875 L 30.3125 -15.4375 C 30.207031 -13.664062 29.796875 -11.976562 29.078125 -10.375 C 28.359375 -8.78125 27.429688 -7.316406 26.296875 -5.984375 C 27.171875 -4.984375 28.046875 -3.984375 28.921875 -2.984375 C 29.804688 -1.992188 30.6875 -1 31.5625 0 Z M 13.21875 -19.609375 C 13.65625 -19.816406 14.117188 -20.050781 14.609375 -20.3125 C 15.109375 -20.582031 15.570312 -20.894531 16 -21.25 C 16.425781 -21.601562 16.78125 -22.023438 17.0625 -22.515625 C 17.34375 -23.015625 17.484375 -23.59375 17.484375 -24.25 C 17.484375 -25.144531 17.195312 -25.875 16.625 -26.4375 C 16.0625 -27.007812 15.296875 -27.296875 14.328125 -27.296875 C 13.566406 -27.296875 12.925781 -27.132812 12.40625 -26.8125 C 11.882812 -26.5 11.492188 -26.082031 11.234375 -25.5625 C 10.972656 -25.050781 10.84375 -24.484375 10.84375 -23.859375 C 10.84375 -23.304688 10.960938 -22.78125 11.203125 -22.28125 C 11.453125 -21.78125 11.757812 -21.304688 12.125 -20.859375 C 12.5 -20.421875 12.863281 -20.003906 13.21875 -19.609375 Z M 12.875 -4 C 14.039062 -4 15.164062 -4.203125 16.25 -4.609375 C 17.332031 -5.023438 18.320312 -5.597656 19.21875 -6.328125 C 18.019531 -7.660156 16.820312 -8.984375 15.625 -10.296875 C 14.4375 -11.617188 13.238281 -12.941406 12.03125 -14.265625 C 11.488281 -13.960938 10.9375 -13.632812 10.375 -13.28125 C 9.820312 -12.9375 9.3125 -12.539062 8.84375 -12.09375 C 8.375 -11.65625 8 -11.15625 7.71875 -10.59375 C 7.4375 -10.03125 7.296875 -9.390625 7.296875 -8.671875 C 7.296875 -7.691406 7.550781 -6.851562 8.0625 -6.15625 C 8.582031 -5.46875 9.265625 -4.9375 10.109375 -4.5625 C 10.960938 -4.1875 11.882812 -4 12.875 -4 Z M 12.875 -4 "/></g></g></g><g fill="#ffffff" fill-opacity="1"><g transform="translate(317.484089, 33.15772)"><g/></g></g><g fill="#ffffff" fill-opacity="1"><g transform="translate(326.130392, 33.15772)"><g><path d="M 31.3125 0 L 25.34375 0 L 22.875 -5.984375 L 8.640625 -5.984375 L 6.1875 0 L 0.203125 0 L 13.078125 -30.953125 L 18.4375 -30.953125 Z M 15.5625 -22.90625 L 10.578125 -10.71875 L 20.953125 -10.71875 L 15.9375 -22.90625 L 15.8125 -23.65625 L 15.734375 -23.65625 Z M 15.5625 -22.90625 "/></g></g></g><g fill="#ffffff" fill-opacity="1"><g transform="translate(354.971774, 33.15772)"><g><path d="M 16.359375 0.6875 C 14.492188 0.6875 12.757812 0.390625 11.15625 -0.203125 C 9.550781 -0.796875 8.144531 -1.640625 6.9375 -2.734375 C 5.738281 -3.835938 4.804688 -5.171875 4.140625 -6.734375 C 3.472656 -8.296875 3.140625 -10.039062 3.140625 -11.96875 L 3.140625 -30.9375 L 8.78125 -30.9375 L 8.78125 -12.375 C 8.78125 -10.914062 9.070312 -9.59375 9.65625 -8.40625 C 10.238281 -7.21875 11.09375 -6.269531 12.21875 -5.5625 C 13.351562 -4.851562 14.734375 -4.5 16.359375 -4.5 C 17.941406 -4.5 19.296875 -4.847656 20.421875 -5.546875 C 21.546875 -6.242188 22.40625 -7.1875 23 -8.375 C 23.601562 -9.570312 23.90625 -10.894531 23.90625 -12.34375 L 23.90625 -30.9375 L 29.5625 -30.9375 L 29.5625 -11.96875 C 29.5625 -10.113281 29.242188 -8.414062 28.609375 -6.875 C 27.972656 -5.34375 27.070312 -4.007812 25.90625 -2.875 C 24.738281 -1.75 23.34375 -0.875 21.71875 -0.25 C 20.09375 0.375 18.304688 0.6875 16.359375 0.6875 Z M 16.359375 0.6875 "/></g></g></g><g fill="#ffffff" fill-opacity="1"><g transform="translate(384.950266, 33.15772)"><g><path d="M 15.671875 0 L 3.6875 0 L 3.6875 -30.9375 L 15.609375 -30.9375 C 18.078125 -30.9375 20.316406 -30.566406 22.328125 -29.828125 C 24.347656 -29.085938 26.082031 -28.035156 27.53125 -26.671875 C 28.976562 -25.304688 30.09375 -23.679688 30.875 -21.796875 C 31.65625 -19.910156 32.046875 -17.804688 32.046875 -15.484375 C 32.046875 -13.171875 31.65625 -11.0625 30.875 -9.15625 C 30.09375 -7.25 28.976562 -5.613281 27.53125 -4.25 C 26.09375 -2.882812 24.367188 -1.832031 22.359375 -1.09375 C 20.359375 -0.363281 18.128906 0 15.671875 0 Z M 9.25 -25.90625 L 9.25 -5.046875 L 15.484375 -5.046875 C 17.742188 -5.046875 19.6875 -5.46875 21.3125 -6.3125 C 22.9375 -7.15625 24.179688 -8.347656 25.046875 -9.890625 C 25.910156 -11.441406 26.34375 -13.273438 26.34375 -15.390625 C 26.34375 -17.503906 25.914062 -19.347656 25.0625 -20.921875 C 24.21875 -22.503906 22.984375 -23.726562 21.359375 -24.59375 C 19.734375 -25.46875 17.757812 -25.90625 15.4375 -25.90625 Z M 9.25 -25.90625 "/></g></g></g><g fill="#ffffff" fill-opacity="1"><g transform="translate(415.815686, 33.15772)"><g><path d="M 9.34375 0 L 3.6875 0 L 3.6875 -30.9375 L 9.34375 -30.9375 Z M 9.34375 0 "/></g></g></g><g fill="#ffffff" fill-opacity="1"><g transform="translate(426.122187, 33.15772)"><g><path d="M 15.828125 0 L 10.1875 0 L 10.1875 -25.875 L 0.984375 -25.875 L 0.984375 -30.9375 L 25.046875 -30.9375 L 25.046875 -25.875 L 15.828125 -25.875 Z M 15.828125 0 "/></g></g></g><g fill="#ffffff" fill-opacity="1"><g transform="translate(449.43723, 33.15772)"><g/></g></g><g fill="#ffffff" fill-opacity="1"><g transform="translate(458.083533, 33.15772)"><g><path d="M 23.3125 0 L 3.6875 0 L 3.6875 -30.9375 L 9.34375 -30.9375 L 9.34375 -5.078125 L 23.3125 -5.078125 Z M 23.3125 0 "/></g></g></g><g fill="#ffffff" fill-opacity="1"><g transform="translate(479.60189, 33.15772)"><g><path d="M 18.171875 0.65625 C 16.335938 0.65625 14.585938 0.390625 12.921875 -0.140625 C 11.253906 -0.679688 9.722656 -1.441406 8.328125 -2.421875 C 6.941406 -3.410156 5.738281 -4.578125 4.71875 -5.921875 C 3.695312 -7.273438 2.90625 -8.765625 2.34375 -10.390625 C 1.78125 -12.015625 1.5 -13.722656 1.5 -15.515625 C 1.5 -17.316406 1.78125 -19.023438 2.34375 -20.640625 C 2.90625 -22.253906 3.695312 -23.734375 4.71875 -25.078125 C 5.738281 -26.421875 6.941406 -27.582031 8.328125 -28.5625 C 9.722656 -29.550781 11.253906 -30.3125 12.921875 -30.84375 C 14.585938 -31.382812 16.335938 -31.65625 18.171875 -31.65625 C 20.003906 -31.65625 21.753906 -31.382812 23.421875 -30.84375 C 25.085938 -30.3125 26.617188 -29.550781 28.015625 -28.5625 C 29.410156 -27.582031 30.617188 -26.421875 31.640625 -25.078125 C 32.671875 -23.734375 33.460938 -22.253906 34.015625 -20.640625 C 34.578125 -19.023438 34.859375 -17.316406 34.859375 -15.515625 C 34.859375 -13.722656 34.578125 -12.015625 34.015625 -10.390625 C 33.460938 -8.765625 32.671875 -7.273438 31.640625 -5.921875 C 30.617188 -4.578125 29.410156 -3.410156 28.015625 -2.421875 C 26.617188 -1.441406 25.09375 -0.679688 23.4375 -0.140625 C 21.78125 0.390625 20.023438 0.65625 18.171875 0.65625 Z M 18.171875 -4.546875 C 19.703125 -4.546875 21.132812 -4.816406 22.46875 -5.359375 C 23.800781 -5.910156 24.972656 -6.675781 25.984375 -7.65625 C 27.003906 -8.644531 27.796875 -9.804688 28.359375 -11.140625 C 28.929688 -12.472656 29.21875 -13.921875 29.21875 -15.484375 C 29.21875 -17.066406 28.929688 -18.523438 28.359375 -19.859375 C 27.796875 -21.203125 27.003906 -22.363281 25.984375 -23.34375 C 24.972656 -24.332031 23.800781 -25.097656 22.46875 -25.640625 C 21.132812 -26.191406 19.703125 -26.46875 18.171875 -26.46875 C 16.648438 -26.46875 15.222656 -26.191406 13.890625 -25.640625 C 12.554688 -25.097656 11.382812 -24.332031 10.375 -23.34375 C 9.375 -22.351562 8.585938 -21.191406 8.015625 -19.859375 C 7.453125 -18.523438 7.171875 -17.066406 7.171875 -15.484375 C 7.171875 -13.921875 7.453125 -12.472656 8.015625 -11.140625 C 8.585938 -9.804688 9.375 -8.644531 10.375 -7.65625 C 11.382812 -6.675781 12.554688 -5.910156 13.890625 -5.359375 C 15.222656 -4.816406 16.648438 -4.546875 18.171875 -4.546875 Z M 18.171875 -4.546875 "/></g></g></g><g fill="#ffffff" fill-opacity="1"><g transform="translate(513.264619, 33.15772)"><g><path d="M 17.828125 0.65625 C 16.023438 0.65625 14.304688 0.382812 12.671875 -0.15625 C 11.046875 -0.707031 9.550781 -1.472656 8.1875 -2.453125 C 6.832031 -3.441406 5.65625 -4.601562 4.65625 -5.9375 C 3.65625 -7.28125 2.882812 -8.757812 2.34375 -10.375 C 1.800781 -11.988281 1.53125 -13.691406 1.53125 -15.484375 C 1.53125 -17.285156 1.800781 -19 2.34375 -20.625 C 2.882812 -22.25 3.660156 -23.734375 4.671875 -25.078125 C 5.679688 -26.421875 6.867188 -27.582031 8.234375 -28.5625 C 9.597656 -29.550781 11.097656 -30.3125 12.734375 -30.84375 C 14.367188 -31.382812 16.097656 -31.65625 17.921875 -31.65625 C 19.222656 -31.65625 20.53125 -31.5 21.84375 -31.1875 C 23.164062 -30.875 24.429688 -30.414062 25.640625 -29.8125 C 26.847656 -29.207031 27.953125 -28.460938 28.953125 -27.578125 C 29.953125 -26.691406 30.800781 -25.675781 31.5 -24.53125 C 32.207031 -23.382812 32.707031 -22.113281 33 -20.71875 L 27.25 -20.71875 C 26.445312 -22.519531 25.21875 -23.925781 23.5625 -24.9375 C 21.90625 -25.957031 19.976562 -26.46875 17.78125 -26.46875 C 16.332031 -26.46875 14.960938 -26.207031 13.671875 -25.6875 C 12.378906 -25.164062 11.25 -24.421875 10.28125 -23.453125 C 9.3125 -22.484375 8.550781 -21.328125 8 -19.984375 C 7.445312 -18.640625 7.171875 -17.140625 7.171875 -15.484375 C 7.171875 -13.804688 7.445312 -12.296875 8 -10.953125 C 8.550781 -9.609375 9.3125 -8.457031 10.28125 -7.5 C 11.25 -6.550781 12.378906 -5.820312 13.671875 -5.3125 C 14.960938 -4.800781 16.332031 -4.546875 17.78125 -4.546875 C 19.632812 -4.546875 21.234375 -4.859375 22.578125 -5.484375 C 23.929688 -6.117188 25.023438 -6.988281 25.859375 -8.09375 C 26.703125 -9.195312 27.269531 -10.472656 27.5625 -11.921875 L 17.5625 -11.921875 L 17.5625 -16.640625 L 33.703125 -16.640625 C 33.722656 -14.109375 33.382812 -11.785156 32.6875 -9.671875 C 31.988281 -7.554688 30.957031 -5.722656 29.59375 -4.171875 C 28.226562 -2.628906 26.554688 -1.4375 24.578125 -0.59375 C 22.609375 0.238281 20.359375 0.65625 17.828125 0.65625 Z M 17.828125 0.65625 "/></g></g></g></g></g></g></g></g></svg>